<svg width="17" height="20" viewBox="0 0 17 33" fill="none" xmlns="http://www.w3.org/2000/svg">
<path d="M10.32 0.359998L10.36 -2.38419e-06H10.72H11.52H12L11.92 0.479999L11.64 2.6C13.48 2.92 14.8 3.68 15.8 4.64L16.08 4.92L15.8 5.24L15.24 5.8L14.96 6.08L14.68 5.8C13.88 5 13.04 4.48 11.4 4.16L9.8 15.72C11.28 16.12 12.88 16.56 14.2 17.32C15.72 18.24 16.84 19.76 16.84 22C16.84 24.24 16.64 26.36 15.36 27.96C14.04 29.6 11.72 30.4 8.04 30.4C7.92 30.4 7.88 30.4 7.72 30.4L7.44 32.48L7.4 32.8H7.04H6.24H5.8L5.84 32.36L6.12 30.36C3.44 30.12 1.44 29.36 0.28 28.2L2.98023e-08 27.92L0.28 27.6L0.84 27.04L1.12 26.76L1.4 27.04C2.2 27.84 3.76 28.52 6.36 28.76L8 16.92C6.44 16.52 4.76 16.04 3.44 15.16C1.88 14.12 0.84 12.44 0.84 10C0.84 7.56 1.24 5.56 2.64 4.24C4 2.92 6.16 2.4 9.24 2.4C9.52 2.4 9.72 2.44 10.04 2.44L10.32 0.359998ZM9.24 4C6.32 4 4.64 4.52 3.72 5.4C2.84 6.28 2.44 7.68 2.44 10C2.44 12 3.16 13.04 4.32 13.8C5.32 14.52 6.68 14.92 8.24 15.36L9.8 4.04C9.64 4.04 9.44 4 9.24 4ZM9.56 17.32L7.96 28.8C7.96 28.8 8 28.8 8.04 28.8C11.52 28.8 13.24 28.04 14.12 26.96C15 25.88 15.24 24.2 15.24 22C15.24 20.28 14.56 19.4 13.36 18.68C12.36 18.08 11.08 17.72 9.56 17.32Z" fill="white" fill-opacity="0.4"/>
</svg>
