<svg width="20" height="20" viewBox="0 0 40 40" fill="none" xmlns="http://www.w3.org/2000/svg">
<path fill-rule="evenodd" clip-rule="evenodd" d="M12.5832 9.66666C12.5832 7.59559 14.2621 5.91666 16.3332 5.91666H21.9999C24.0709 5.91666 25.7499 7.5956 25.7499 9.66666V11.6667H35.1703H35.1712C35.6863 11.6667 36.1171 12.0578 36.1666 12.5705L38.2282 33.9038C38.285 34.4914 37.8232 35 37.2329 35H37.2319H9.26432H1.10117C0.510871 35 0.0490219 34.4914 0.105803 33.9038L2.16743 12.5705C2.21697 12.0578 2.64776 11.6667 3.16279 11.6667H7.74051H12.5832V9.66666ZM14.0832 11.6667H24.2499V9.66666C24.2499 8.42402 23.2425 7.41666 21.9999 7.41666H16.3332C15.0906 7.41666 14.0832 8.42402 14.0832 9.66666V11.6667ZM6.77368 13.1667H3.6168L1.65181 33.5H8.22606L6.77368 13.1667ZM9.72988 33.5H36.6813L34.7163 13.1667H25.7499V13.3333H24.2499V13.1667H14.0832V13.3333H12.5832V13.1667H8.2775L9.72988 33.5Z" fill="white"/>
</svg>
