<svg width="20" height="20" viewBox="0 0 40 40" fill="none" xmlns="http://www.w3.org/2000/svg">
<path d="M11.7945 20.4828C11.0691 17.4061 11.0692 14.2041 11.7945 11.1274C12.7989 6.86707 16.1422 3.5406 20.424 2.54128C23.5163 1.81957 26.7344 1.81957 29.8267 2.54128C34.1085 3.5406 37.4518 6.86707 38.4562 11.1274C39.1815 14.2041 39.1815 17.4061 38.4562 20.4828C37.4518 24.7431 34.1085 28.0696 29.8267 29.0689C26.7344 29.7906 23.5163 29.7906 20.424 29.0689M11.7945 20.4828C12.7989 24.7431 16.1422 28.0696 20.424 29.0689M11.7945 20.4828C11.3378 18.5456 11.1686 16.5587 11.2871 14.5846M20.424 29.0689C22.371 29.5233 24.3679 29.6916 26.3519 29.5738C26.3178 29.7404 26.2811 29.9066 26.242 30.0724" stroke="white" stroke-opacity="0.4" stroke-width="1.5"/>
<path d="M2.54401 27.5009C1.81866 24.4242 1.81866 21.2222 2.54401 18.1455C3.54839 13.8852 6.89167 10.5587 11.1735 9.55939C14.2658 8.83769 17.4839 8.83769 20.5762 9.55939C24.858 10.5587 28.2013 13.8852 29.2057 18.1455C29.931 21.2222 29.931 24.4242 29.2057 27.5009C28.2013 31.7612 24.858 35.0877 20.5762 36.087C17.4839 36.8087 14.2658 36.8087 11.1735 36.087M2.54401 27.5009C3.54839 31.7612 6.89167 35.0877 11.1735 36.087M2.54401 27.5009C2.0873 25.5637 1.91816 23.5768 2.03657 21.6028M11.1735 36.087C13.1205 36.5414 15.1175 36.7097 17.1014 36.5919C17.0673 36.7585 17.0306 36.9247 16.9915 37.0906" stroke="white" stroke-opacity="0.4" stroke-width="1.5"/>
<path d="M11.2505 20.715L20.5004 11.3575" stroke="white" stroke-opacity="0.4" stroke-width="1.29163"/>
<path d="M15.8755 25.3937L27.4379 13.6969" stroke="white" stroke-opacity="0.4" stroke-width="1.5"/>
<path d="M20.5 30.0724L29.7499 20.715" stroke="white" stroke-opacity="0.4" stroke-width="1.29163"/>
</svg>
