<svg width="41" height="41" viewBox="0 0 41 41" fill="none" xmlns="http://www.w3.org/2000/svg">
<rect x="20.4243" y="2.27454" width="25.6688" height="25.6688" rx="8.56417" transform="rotate(45 20.4243 2.27454)" fill="#333333"/>
<path fill-rule="evenodd" clip-rule="evenodd" d="M21.6564 14.6536C21.1041 13.8421 19.9077 13.8421 19.3554 14.6536L18.8267 15.4303C18.5465 15.842 18.0677 16.0726 17.5711 16.035L16.6342 15.964C15.6554 15.8899 14.9095 16.8252 15.1996 17.763L15.4773 18.6606C15.6244 19.1364 15.5062 19.6545 15.1672 20.0193L14.5275 20.7076C13.8593 21.4266 14.1255 22.593 15.0395 22.9509L15.9145 23.2934C16.3782 23.475 16.7095 23.8905 16.7834 24.383L16.9227 25.3122C17.0682 26.283 18.146 26.8021 18.9958 26.3106L19.8091 25.8401C20.2402 25.5908 20.7716 25.5908 21.2027 25.8401L22.016 26.3106C22.8658 26.8021 23.9436 26.283 24.0891 25.3122L24.2284 24.383C24.3023 23.8905 24.6336 23.475 25.0973 23.2934L25.9722 22.9509C26.8863 22.593 27.1525 21.4266 26.4843 20.7076L25.8446 20.0193C25.5056 19.6545 25.3873 19.1364 25.5345 18.6606L25.8122 17.763C26.1023 16.8252 25.3564 15.8899 24.3776 15.964L23.4407 16.035C22.9441 16.0726 22.4652 15.842 22.185 15.4303L21.6564 14.6536ZM23.0767 19.6099C23.3526 19.3424 23.3594 18.9018 23.0918 18.6259C22.8243 18.3501 22.3838 18.3433 22.1079 18.6108L19.722 20.9244L18.9017 20.129C18.6258 19.8615 18.1852 19.8682 17.9177 20.1441C17.6502 20.42 17.657 20.8606 17.9328 21.1281L19.2375 22.3932C19.5075 22.655 19.9364 22.655 20.2064 22.3932L23.0767 19.6099Z" fill="white"/>
</svg>
