<svg width="96" height="37" viewBox="0 0 37 37" fill="none" xmlns="http://www.w3.org/2000/svg">
<path fill-rule="evenodd" clip-rule="evenodd" d="M1.55477 19.7372L1.58438 19.7548C-2.30432 26.7307 2.1391 36.8207 11.3051 36.8312L27.0894 36.8494V36.8481C34.9099 36.8012 41.1861 27.815 36.616 19.669L28.799 5.73544C24.9152 -1.31908 14.0811 -2.47519 9.46224 5.71526L1.55477 19.7372ZM29.1266 11.1776C28.8727 0.7801 15.4778 -2.72814 10.4016 6.27337L4.85047 16.1168C5.06436 15.9627 5.28603 15.8134 5.51559 15.6694L9.11288 13.4124L17.6212 8.32009C18.6305 7.71607 19.8776 7.71332 20.8894 8.31289L29.1766 13.224L29.1266 11.1776ZM30.2116 11.1497C30.2056 10.9022 30.1928 10.6583 30.1736 10.4179L35.6755 20.2249C40.7321 29.2381 31.0747 39.391 22.1752 34.4179L20.4048 33.4286L28.7315 28.4941C29.7432 27.8945 30.3645 26.7845 30.3595 25.5854L30.3172 15.4759L30.2801 13.9535L30.2782 13.8769L30.2116 11.1497ZM18.7222 32.4884L18.7216 31.4993C18.7182 25.8793 14.3096 21.3172 8.84789 21.2543L8.84789 25.4085C8.84789 26.208 9.26515 26.9461 9.94131 27.3429L18.7222 32.4884ZM8.84789 20.1389V14.8843L9.66937 14.3689L18.1679 9.28248C18.3437 9.17727 18.5303 9.09942 18.7222 9.04895L18.7216 9.89391C18.7182 15.5139 14.3096 20.076 8.84789 20.1389ZM28.1888 27.5293L19.8081 32.4959L19.8087 31.4993C19.812 26.0263 23.9931 21.5565 29.2561 21.2684L29.2742 25.5901C29.2775 26.3896 28.8633 27.1296 28.1888 27.5293ZM29.2513 20.1245C23.9906 19.8339 19.812 15.3652 19.8087 9.89391L19.8082 9.05098C19.9943 9.10071 20.1756 9.17628 20.3467 9.27768L29.2084 14.5293L29.232 15.4924L29.2513 20.1245ZM22.2955 35.7298L11.3064 35.7172C1.17349 35.7055 -2.56399 22.0443 6.08164 16.6199L7.76255 15.5653L7.76255 25.4085C7.76255 26.6077 8.38844 27.7149 9.40268 28.31L17.9533 33.3272L21.6562 35.3964C21.869 35.5153 22.0821 35.6264 22.2955 35.7298ZM19.2652 27.9839C18.1729 24.5402 15.522 21.8186 12.1673 20.6966C15.522 19.5746 18.1729 16.853 19.2652 13.4092C20.3575 16.853 23.0083 19.5746 26.363 20.6966C23.0083 21.8186 20.3575 24.5402 19.2652 27.9839Z" fill="white"/>
</svg>
