<svg width="96" height="37" viewBox="0 0 96 37" fill="none" xmlns="http://www.w3.org/2000/svg">
<path fill-rule="evenodd" clip-rule="evenodd" d="M1.55477 19.7372L1.58438 19.7548C-2.30432 26.7307 2.1391 36.8207 11.3051 36.8312L27.0894 36.8494V36.8481C34.9099 36.8012 41.1861 27.815 36.616 19.669L28.799 5.73544C24.9152 -1.31908 14.0811 -2.47519 9.46224 5.71526L1.55477 19.7372ZM29.1266 11.1776C28.8727 0.7801 15.4778 -2.72814 10.4016 6.27337L4.85047 16.1168C5.06436 15.9627 5.28603 15.8134 5.51559 15.6694L9.11288 13.4124L17.6212 8.32009C18.6305 7.71607 19.8776 7.71332 20.8894 8.31289L29.1766 13.224L29.1266 11.1776ZM30.2116 11.1497C30.2056 10.9022 30.1928 10.6583 30.1736 10.4179L35.6755 20.2249C40.7321 29.2381 31.0747 39.391 22.1752 34.4179L20.4048 33.4286L28.7315 28.4941C29.7432 27.8945 30.3645 26.7845 30.3595 25.5854L30.3172 15.4759L30.2801 13.9535L30.2782 13.8769L30.2116 11.1497ZM18.7222 32.4884L18.7216 31.4993C18.7182 25.8793 14.3096 21.3172 8.84789 21.2543L8.84789 25.4085C8.84789 26.208 9.26515 26.9461 9.94131 27.3429L18.7222 32.4884ZM8.84789 20.1389V14.8843L9.66937 14.3689L18.1679 9.28248C18.3437 9.17727 18.5303 9.09942 18.7222 9.04895L18.7216 9.89391C18.7182 15.5139 14.3096 20.076 8.84789 20.1389ZM28.1888 27.5293L19.8081 32.4959L19.8087 31.4993C19.812 26.0263 23.9931 21.5565 29.2561 21.2684L29.2742 25.5901C29.2775 26.3896 28.8633 27.1296 28.1888 27.5293ZM29.2513 20.1245C23.9906 19.8339 19.812 15.3652 19.8087 9.89391L19.8082 9.05098C19.9943 9.10071 20.1756 9.17628 20.3467 9.27768L29.2084 14.5293L29.232 15.4924L29.2513 20.1245ZM22.2955 35.7298L11.3064 35.7172C1.17349 35.7055 -2.56399 22.0443 6.08164 16.6199L7.76255 15.5653L7.76255 25.4085C7.76255 26.6077 8.38844 27.7149 9.40268 28.31L17.9533 33.3272L21.6562 35.3964C21.869 35.5153 22.0821 35.6264 22.2955 35.7298ZM19.2652 27.9839C18.1729 24.5402 15.522 21.8186 12.1673 20.6966C15.522 19.5746 18.1729 16.853 19.2652 13.4092C20.3575 16.853 23.0083 19.5746 26.363 20.6966C23.0083 21.8186 20.3575 24.5402 19.2652 27.9839Z" fill="white"/>
<path d="M70.6323 25.1397C70.6323 25.7112 69.7975 25.8404 68.4299 25.8404C67.0622 25.8404 66.5271 25.5229 66.4196 24.6114C65.8638 25.4594 64.8598 25.9266 63.4053 25.9266C61.2463 25.9266 59.4075 24.464 59.4075 21.7497V18.21C59.4075 17.2145 58.5522 16.9583 58.5522 16.4299V16.346C58.5522 16.1124 58.7443 15.9016 59.0439 15.8585L62.2297 15.4344C62.8495 15.3505 63.2337 15.4775 63.2337 15.8585L63.1697 22.1329C63.1491 23.8721 63.5974 24.5275 64.5373 24.5275C65.3287 24.5275 65.9484 23.6998 65.9484 22.4073V18.21C65.9484 17.2145 65.0931 16.9583 65.0931 16.4299V16.346C65.0931 16.1124 65.2852 15.9016 65.5848 15.8585L68.7706 15.4344C69.3904 15.3505 69.7106 15.4775 69.7106 15.8585V23.3801C69.7106 25.0966 70.63 24.2712 70.63 25.1397H70.6323Z" fill="white"/>
<path d="M80.3453 17.5078C80.3453 18.5668 79.9382 19.501 78.6986 19.501C76.7524 19.501 77.6306 17.5078 76.5603 17.5078C75.8764 17.5078 75.7689 18.6099 75.7689 19.5419V23.4852C75.7689 24.4603 76.901 24.7142 76.901 25.3083V25.3922C76.901 25.6462 76.6883 25.7959 76.3887 25.7959H71.7918C71.4922 25.7959 71.2795 25.6485 71.2795 25.3922V25.3083C71.2795 24.7142 72.1348 24.4603 72.1348 23.4852V19.2675C72.1348 18.272 71.108 18.1858 71.108 17.5713V17.5078C71.108 17.2539 71.2795 17.0634 71.5997 16.8933L74.614 15.4942C75.1697 15.2402 75.3847 15.5373 75.3847 15.9613V17.5078C75.8558 16.1518 76.8599 15.408 78.335 15.408C79.5974 15.408 80.3453 16.3196 80.3453 17.5078Z" fill="white"/>
<path d="M91.9955 25.1438C91.9955 25.6948 90.7559 25.8445 89.5804 25.8445C88.2973 25.8445 87.6775 25.5905 87.506 24.8263C87.0578 25.4408 86.2024 25.9284 84.7913 25.9284C82.5043 25.9284 80.7501 24.8898 80.7501 22.7061C80.7501 20.5224 82.5683 19.4635 84.5992 19.4635C85.498 19.4635 86.2253 19.6744 86.7582 19.9941V19.9306C86.502 17.4294 86.3511 16.3478 85.2396 16.3478C83.7644 16.3478 84.3636 19.1891 82.4608 19.1891C81.562 19.1891 80.9651 18.6381 80.9651 17.8104C80.9651 16.0712 83.06 15.3297 85.2419 15.3297C88.1075 15.3297 90.0949 16.9827 90.438 19.6131L90.9091 23.4068C91.1012 24.9125 92 24.5519 92 25.146L91.9955 25.1438ZM87.0783 23.3206L86.9937 22.3456C86.8451 21.0735 86.287 20.5859 85.6672 20.5859C85.0475 20.5859 84.5763 21.1574 84.5763 22.0281C84.5763 23.5338 85.0886 24.8467 85.9668 24.8467C86.6735 24.8467 87.0783 24.0417 87.0783 23.3206Z" fill="white"/>
<path fill-rule="evenodd" clip-rule="evenodd" d="M44.4229 25.4422V25.5261C44.4229 25.7801 44.615 25.9297 44.9351 25.9297H50.1542C50.4538 25.9297 50.6459 25.7823 50.6459 25.5261V25.4422C50.6459 25.0159 49.9963 24.7664 49.7562 24.297C49.5961 23.9864 49.8385 23.619 50.1907 23.619H54.0352C54.3874 23.619 54.6299 23.9864 54.4698 24.297C54.2296 24.7642 53.5801 25.0159 53.5801 25.4399V25.5238C53.5801 25.7778 53.7722 25.9274 54.0924 25.9274H59.1742C59.4944 25.9274 59.6865 25.78 59.6865 25.5238V25.4399C59.6865 24.8458 58.8952 24.7415 58.4469 23.6168C58.4469 23.6168 54.1016 12.2924 53.9209 11.8933C53.9209 11.8933 53.5595 10.8752 52.7705 10.8752H51.8511C51.1033 10.8752 50.8357 11.1926 50.5361 11.8933L45.6624 23.619C45.2142 24.7211 44.4229 24.8481 44.4229 25.4422ZM51.1161 19.5601C51.1161 20.2128 49.513 20.4256 49.513 21.1363H49.5106C49.5106 21.4772 49.9745 21.6972 50.4797 21.6972H53.63C54.1352 21.6972 54.5991 21.4772 54.5991 21.1363C54.5991 20.4231 52.9961 20.2128 52.9961 19.5601C52.9961 18.9074 54.0575 18.9727 54.0575 18.1652C54.0575 17.4883 52.7993 17.7881 52.7993 17.0677C52.7993 16.7727 52.877 16.5648 52.877 16.3521C52.877 15.8589 52.5807 15.5156 52.0561 15.5156C51.5314 15.5156 51.2351 15.8589 51.2351 16.3521C51.2351 16.5648 51.3128 16.7727 51.3128 17.0677C51.3128 17.7881 50.0547 17.4883 50.0547 18.1652C50.0547 18.9727 51.1161 18.9074 51.1161 19.5601Z" fill="white"/>
<path d="M95.326 24.2688C95.0592 24.5333 94.7377 24.6667 94.3615 24.6667C93.9853 24.6667 93.6615 24.5333 93.3925 24.2688C93.1234 24.0043 92.9889 23.6833 92.9889 23.3103C92.9889 22.9373 93.1234 22.6185 93.3925 22.354C93.6615 22.0895 93.983 21.9584 94.3615 21.9584C94.74 21.9584 95.0592 22.0895 95.326 22.354C95.5928 22.6185 95.725 22.9373 95.725 23.3103C95.725 23.6833 95.5928 24.0043 95.326 24.2688ZM94.3615 24.4338C94.6579 24.4338 94.911 24.3231 95.1208 24.1015C95.3328 23.88 95.4377 23.6155 95.4377 23.3103C95.4377 23.0051 95.3328 22.7406 95.1208 22.519C94.9087 22.2997 94.6556 22.189 94.3615 22.189C94.0674 22.189 93.8097 22.2997 93.5977 22.519C93.3856 22.7383 93.2807 23.0028 93.2807 23.3103C93.2807 23.6177 93.3856 23.8868 93.5954 24.106C93.8052 24.3253 94.0605 24.4361 94.3615 24.4361V24.4338ZM94.3752 24.0654C94.1563 24.0654 93.9716 23.9885 93.8188 23.837C93.6684 23.6856 93.5908 23.5047 93.5908 23.299C93.5908 23.0932 93.6661 22.9056 93.8143 22.7632C93.9625 22.6208 94.1517 22.5507 94.3797 22.5529C94.5622 22.5552 94.7195 22.6004 94.8517 22.6886C94.984 22.7768 95.0501 22.883 95.0501 23.0051C95.0501 23.0503 95.0319 23.0887 94.9954 23.1181C94.9589 23.1498 94.9087 23.1656 94.8472 23.1656C94.7924 23.1656 94.7468 23.1498 94.7081 23.1159C94.6693 23.0842 94.6397 23.0458 94.6192 23.0006C94.5986 22.9553 94.5758 22.9101 94.5553 22.8649C94.5348 22.8197 94.5052 22.779 94.4687 22.7474C94.4322 22.7157 94.3889 22.6976 94.3364 22.6976C94.2407 22.6976 94.17 22.7383 94.1221 22.8174C94.0742 22.8988 94.0491 23.0051 94.0491 23.1362C94.0491 23.3035 94.0925 23.4391 94.1768 23.5431C94.2635 23.6471 94.3866 23.6991 94.5462 23.6991C94.7058 23.6991 94.8403 23.629 94.9247 23.4866C94.9429 23.4617 94.968 23.4572 95.0022 23.4708C95.0364 23.4844 95.0524 23.507 95.0501 23.5409C95.0387 23.6901 94.9726 23.8144 94.8517 23.9116C94.7309 24.0088 94.5713 24.0586 94.3729 24.0586L94.3752 24.0654Z" fill="white"/>
</svg>
