<svg width="41" height="41" viewBox="0 0 41 41" fill="none" xmlns="http://www.w3.org/2000/svg">
<rect x="20.4246" y="2.1948" width="25.7801" height="25.7801" rx="8" transform="rotate(45 20.4246 2.1948)" fill="#333333"/>
<g clip-path="url(#clip0_913_486)">
<path d="M20.8942 18.4337C20.8942 17.8631 21.3568 17.4005 21.9273 17.4005H26.8348C27.4054 17.4005 27.868 17.8631 27.868 18.4337H26.3183C25.7477 18.4337 25.2851 18.8963 25.2851 19.4668V21.2755H27.868V23.5995C28.1533 23.5995 28.3846 23.8308 28.3846 24.1161C28.3846 24.4013 28.1533 24.6326 27.868 24.6326H13.9204C13.6351 24.6326 13.4038 24.4013 13.4038 24.1161C13.4038 23.8308 13.6351 23.5995 13.9204 23.5995H20.8942V18.4337Z" fill="white"/>
<path d="M20.88 15.3342H13.6479C13.3626 15.3342 13.1313 15.5655 13.1313 15.8508C13.1313 16.1361 13.3626 16.3674 13.6479 16.3674H16.2354C16.5207 16.3674 16.752 16.5987 16.752 16.8839C16.752 17.1692 16.5207 17.4005 16.2354 17.4005H13.6479C13.3626 17.4005 13.1313 17.6318 13.1313 17.9171C13.1313 18.2024 13.3626 18.4337 13.6479 18.4337H14.6856C14.9709 18.4337 15.2022 18.665 15.2022 18.9503C15.2022 19.2356 14.9709 19.4668 14.6856 19.4668H13.6479C13.3626 19.4668 13.1313 19.6981 13.1313 19.9834C13.1313 20.2687 13.3626 20.5 13.6479 20.5H13.6525C13.9378 20.5 14.1691 20.7313 14.1691 21.0166C14.1691 21.3019 13.9378 21.5332 13.6525 21.5332H13.6479C13.3626 21.5332 13.1313 21.7644 13.1313 22.0497V23.6326C13.1313 24.1849 13.5791 24.6326 14.1313 24.6326H21.9132V16.3674C21.9132 15.7968 21.4506 15.3342 20.88 15.3342Z" fill="white"/>
<ellipse cx="16.8947" cy="23.8578" rx="2.04485" ry="2.04485" fill="white"/>
<ellipse cx="16.895" cy="23.8578" rx="0.904012" ry="0.904012" fill="#333333"/>
<ellipse cx="24.3652" cy="23.8578" rx="2.04485" ry="2.04485" fill="white"/>
<circle cx="24.3654" cy="23.8578" r="0.904012" fill="#333333"/>
</g>
<defs>
<clipPath id="clip0_913_486">
<rect width="15.7692" height="15.7692" fill="white" transform="translate(12.6155 12.6154)"/>
</clipPath>
</defs>
</svg>
