<svg width="41" height="41" viewBox="0 0 41 41" fill="none" xmlns="http://www.w3.org/2000/svg">
<rect x="20.4246" y="2.13816" width="25.8602" height="25.8602" rx="8" transform="rotate(45 20.4246 2.13816)" fill="#333333"/>
<path d="M14.9807 16.4204C14.9807 15.8681 15.4284 15.4204 15.9807 15.4204H25.0177C25.57 15.4204 26.0177 15.8681 26.0177 16.4204V24.0809C26.0177 25.1854 25.1223 26.0809 24.0177 26.0809H16.9807C15.8761 26.0809 14.9807 25.1854 14.9807 24.0809V16.4204Z" fill="white"/>
<path d="M14.9807 17.9413H17.7726C18.0716 17.9413 18.314 18.1837 18.314 18.4827C18.314 18.7817 18.0716 19.0241 17.7726 19.0241H14.9807V17.9413Z" fill="#333333"/>
<path d="M22.6868 18.4827C22.6868 18.1837 22.9292 17.9413 23.2282 17.9413H26.0201V19.0242H23.2282C22.9292 19.0242 22.6868 18.7818 22.6868 18.4827Z" fill="#333333"/>
<rect x="21.1299" y="16.996" width="2.97338" height="1.25844" transform="rotate(90 21.1299 16.996)" fill="#333333"/>
</svg>
