<svg width="36" height="29" viewBox="0 0 36 29" fill="none" xmlns="http://www.w3.org/2000/svg">
<path fill-rule="evenodd" clip-rule="evenodd" d="M36 6C36 2.68629 33.3137 0 30 0H6C2.68629 0 0 2.68629 0 6V16C0 19.3137 2.68629 22 6 22H7.35703C10.5326 22 13.2179 24.7284 15.5173 26.9185C15.7441 27.1345 15.973 27.334 16.1979 27.5167C17.5509 28.6163 19.4491 28.6163 20.8021 27.5167C21.027 27.334 21.2559 27.1345 21.4827 26.9185C23.7821 24.7284 26.4674 22 29.643 22H30C33.3137 22 36 19.3137 36 16V6Z" fill="#565656"/>
<path d="M8.56167 7.464C8.82567 8.16 10.0017 10.332 10.7457 11.628H10.8177C11.5257 10.356 12.5577 8.448 13.0497 7.464H14.4657C13.4697 9.024 12.4017 10.86 11.3337 12.72C11.3457 13.512 11.3697 14.58 11.3817 15H10.1577C10.1817 14.592 10.1937 13.512 10.2057 12.708C9.41367 11.22 7.63767 8.316 7.10967 7.464H8.56167ZM21.2805 12.084C21.2805 13.884 20.2725 15.132 18.1365 15.132C16.0005 15.132 14.9805 13.884 14.9805 12.084C14.9805 10.26 16.0005 9 18.1365 9C20.2725 9 21.2805 10.26 21.2805 12.084ZM20.1405 12.072C20.1405 10.656 19.3845 9.936 18.1365 9.936C16.8765 9.936 16.1325 10.656 16.1325 12.072C16.1325 13.476 16.8765 14.196 18.1365 14.196C19.3845 14.196 20.1405 13.476 20.1405 12.072ZM22.621 9.132C23.005 9.156 23.401 9.156 23.809 9.132C23.761 10.068 23.737 11.76 23.737 12.456C23.737 13.668 24.169 14.148 25.057 14.148C26.029 14.148 26.905 13.164 26.917 11.82C26.917 11.136 26.941 10.176 26.893 9.132C27.289 9.156 27.733 9.156 28.141 9.132C28.057 10.272 28.033 12.948 28.105 15H26.953C26.953 14.724 26.977 14.136 26.965 13.26H26.905C26.521 14.604 25.657 15.144 24.709 15.144C23.221 15.144 22.597 14.208 22.597 12.672C22.597 11.844 22.633 10.836 22.621 9.132Z" fill="white"/>
</svg>
