<svg width="20" height="20" viewBox="0 0 42 42" fill="none" xmlns="http://www.w3.org/2000/svg">
<path fill-rule="evenodd" clip-rule="evenodd" d="M23.8671 2.45024C24.811 1.50634 26.0912 0.97606 27.426 0.97606H35.9924C37.3272 0.97606 38.6074 1.50634 39.5513 2.45024C40.4952 3.39414 41.0255 4.67434 41.0255 6.00922V31.7082C41.0255 34.179 40.044 36.5487 38.2968 38.2958C36.5497 40.043 34.18 41.0245 31.7092 41.0245C31.6672 41.0245 31.6252 41.0242 31.5832 41.0237H6.00889C4.67401 41.0237 3.3938 40.4934 2.4499 39.5495C1.506 38.6056 0.975724 37.3254 0.975724 35.9905V27.4242C0.975724 26.0893 1.506 24.8091 2.4499 23.8652C3.3938 22.9213 4.67401 22.391 6.00889 22.391H9.20393L6.2153 19.4024L6.21522 19.4023C5.27165 18.4584 4.74158 17.1785 4.74158 15.8439C4.74158 14.5099 5.2711 13.2306 6.21377 12.2869L12.2035 6.23183L12.2064 6.22886C13.1585 5.27704 14.5076 4.75522 15.8302 4.75522C17.1648 4.75522 18.4448 5.28529 19.3887 6.22886L19.3887 6.22894L22.3929 9.23309V6.00922C22.3929 4.67434 22.9232 3.39414 23.8671 2.45024ZM31.7079 39.5237C31.7194 39.5237 31.7309 39.5239 31.7423 39.5244C33.8034 39.5157 35.7781 38.6932 37.2362 37.2352C38.702 35.7693 39.5255 33.7812 39.5255 31.7082V6.00922C39.5255 5.07217 39.1533 4.1735 38.4907 3.5109C37.8281 2.8483 36.9294 2.47606 35.9924 2.47606H27.426C26.489 2.47606 25.5903 2.8483 24.9277 3.5109C24.2651 4.1735 23.8929 5.07217 23.8929 6.00922V31.7082C23.8929 33.7812 24.7164 35.7693 26.1822 37.2352C27.6209 38.6738 29.5625 39.4937 31.5938 39.5237H31.7079ZM6.00889 39.5237H26.6384C26.31 39.3106 25.9942 39.0763 25.693 38.8215C25.6195 38.786 25.5506 38.7376 25.4895 38.6766L10.7039 23.891H6.00889C5.07183 23.891 4.17316 24.2633 3.51056 24.9259C2.84797 25.5885 2.47572 26.4871 2.47572 27.4242V35.9905C2.47572 36.9276 2.84797 37.8262 3.51056 38.4888C4.17316 39.1514 5.07183 39.5237 6.00889 39.5237ZM22.3929 31.7082C22.3929 32.3717 22.4637 33.028 22.6011 33.6668L7.27604 18.3418L7.27596 18.3417C6.61364 17.6792 6.24158 16.7807 6.24158 15.8439C6.24158 14.907 6.61367 14.0085 7.27604 13.3459L7.27883 13.3431L13.2683 7.28829C13.9226 6.63503 14.882 6.25522 15.8302 6.25522C16.767 6.25522 17.6655 6.62729 18.3281 7.2896L18.3282 7.28968L22.3929 11.3544V31.7082ZM32.4346 31.7084C32.4346 31.3076 32.1097 30.9828 31.709 30.9828C31.3082 30.9828 30.9833 31.3076 30.9833 31.7084V31.7256C30.9833 32.1263 31.3082 32.4512 31.709 32.4512C32.1097 32.4512 32.4346 32.1263 32.4346 31.7256V31.7084Z" fill="white" fill-opacity="0.4"/>
</svg>
