<svg width="20" height="20" viewBox="0 0 20 20" fill="none" xmlns="http://www.w3.org/2000/svg">
<path d="M15.0259 13.8475L18.5951 17.4158L17.4159 18.595L13.8476 15.0258C12.5199 16.0901 10.8684 16.669 9.16675 16.6666C5.02675 16.6666 1.66675 13.3066 1.66675 9.16663C1.66675 5.02663 5.02675 1.66663 9.16675 1.66663C13.3067 1.66663 16.6667 5.02663 16.6667 9.16663C16.6692 10.8683 16.0903 12.5197 15.0259 13.8475ZM13.3542 13.2291C14.4118 12.1415 15.0025 10.6837 15.0001 9.16663C15.0001 5.94329 12.3892 3.33329 9.16675 3.33329C5.94341 3.33329 3.33341 5.94329 3.33341 9.16663C3.33341 12.3891 5.94341 15 9.16675 15C10.6838 15.0023 12.1417 14.4117 13.2292 13.3541L13.3542 13.2291ZM10.1484 5.97996C9.90269 6.09096 9.68756 6.25992 9.52149 6.47234C9.35542 6.68476 9.24337 6.9343 9.19495 7.19955C9.14653 7.4648 9.16319 7.73784 9.24349 7.99524C9.3238 8.25263 9.46535 8.4867 9.65601 8.67736C9.84667 8.86802 10.0807 9.00958 10.3381 9.08988C10.5955 9.17019 10.8686 9.18685 11.1338 9.13842C11.3991 9.09 11.6486 8.97795 11.861 8.81188C12.0735 8.64581 12.2424 8.43069 12.3534 8.18496C12.5724 8.89631 12.547 9.6605 12.2813 10.3558C12.0156 11.051 11.5248 11.6373 10.8872 12.0213C10.2496 12.4053 9.50181 12.5648 8.76302 12.4744C8.02422 12.3841 7.33691 12.0491 6.81061 11.5228C6.28431 10.9965 5.9493 10.3092 5.85895 9.57036C5.7686 8.83156 5.92812 8.08378 6.31209 7.44616C6.69605 6.80855 7.28237 6.31778 7.97762 6.05206C8.67288 5.78634 9.43706 5.76096 10.1484 5.97996Z" fill="#565656"/>
</svg>
